<svg width="130" height="195" viewBox="0 0 130 195" fill="none" xmlns="http://www.w3.org/2000/svg">
<g opacity="0.5">
<mask id="mask0_705_65" style="mask-type:alpha" maskUnits="userSpaceOnUse" x="0" y="0" width="130" height="195">
<path fill-rule="evenodd" clip-rule="evenodd" d="M126.424 126.424L99.1157 99.1157L95.8241 102.407L129.96 136.543L126.424 140.079L92.2885 105.943L88.9969 109.234L129.96 150.197L126.424 153.733L85.4614 112.77L82.1697 116.062L129.96 163.852L126.424 167.387L78.6342 119.597L75.3426 122.889L129.96 177.506L126.424 181.042L71.8071 126.424L68.5154 129.716L129.96 191.16L126.424 194.696L64.9799 133.251L3.53553 194.696L0 191.16L61.4444 129.716L58.1527 126.424L3.53553 181.042L0 177.506L54.6172 122.889L51.3256 119.597L3.53553 167.387L0 163.852L47.7901 116.062L44.4984 112.77L3.53553 153.733L0 150.197L40.9629 109.234L37.6713 105.943L3.53553 140.079L0 136.543L34.1358 102.407L30.8441 99.1157L3.53553 126.424L0 122.889L27.3086 95.5801L3.53553 71.8071L7.07106 68.2715L30.8441 92.0446L34.1358 88.753L3.53553 58.1528L7.07106 54.6172L37.6713 85.2175L40.9629 81.9258L3.53553 44.4985L7.07106 40.9629L44.4984 78.3903L47.7901 75.0987L3.53553 30.8441L7.07106 27.3086L51.3256 71.5631L54.6172 68.2715L3.53553 17.1898L7.07106 13.6543L58.1528 64.736L61.4444 61.4444L3.53553 3.53553L7.07106 0L64.9799 57.9088L122.889 0L126.424 3.53553L68.5154 61.4444L71.8071 64.736L122.889 13.6543L126.424 17.1898L75.3426 68.2715L78.6342 71.5631L122.889 27.3086L126.424 30.8441L82.1698 75.0987L85.4614 78.3903L122.889 40.9629L126.424 44.4985L88.9969 81.9258L92.2885 85.2175L122.889 54.6172L126.424 58.1528L95.8241 88.753L99.1157 92.0446L122.889 68.2715L126.424 71.8071L102.651 95.5801L129.96 122.889L126.424 126.424ZM64.9799 64.9799L61.6883 68.2715L64.9799 71.5632L68.2715 68.2715L64.9799 64.9799ZM58.1528 71.8071L54.8611 75.0987L58.1528 78.3903L61.4444 75.0987L58.1528 71.8071ZM51.3256 78.6342L48.034 81.9258L51.3256 85.2175L54.6172 81.9258L51.3256 78.6342ZM44.4984 85.4614L41.2068 88.753L44.4985 92.0446L47.7901 88.753L44.4984 85.4614ZM37.6713 92.2885L34.3797 95.5801L37.6713 98.8718L40.9629 95.5801L37.6713 92.2885ZM92.2885 92.2885L95.5801 95.5801L92.2885 98.8718L88.9969 95.5801L92.2885 92.2885ZM85.4614 85.4614L88.753 88.753L85.4614 92.0446L82.1697 88.753L85.4614 85.4614ZM78.6342 78.6342L81.9258 81.9258L78.6342 85.2175L75.3426 81.9258L78.6342 78.6342ZM71.8071 71.8071L75.0987 75.0987L71.8071 78.3903L68.5154 75.0987L71.8071 71.8071ZM64.9799 78.6342L61.6883 81.9258L64.9799 85.2175L68.2715 81.9258L64.9799 78.6342ZM58.1527 85.4614L54.8611 88.753L58.1528 92.0446L61.4444 88.753L58.1527 85.4614ZM51.3256 92.2885L48.034 95.5801L51.3256 98.8718L54.6172 95.5801L51.3256 92.2885ZM44.4984 99.1157L41.2068 102.407L44.4984 105.699L47.7901 102.407L44.4984 99.1157ZM85.4614 99.1157L88.753 102.407L85.4614 105.699L82.1697 102.407L85.4614 99.1157ZM78.6342 92.2885L81.9258 95.5801L78.6342 98.8718L75.3426 95.5801L78.6342 92.2885ZM71.8071 85.4614L75.0987 88.753L71.8071 92.0446L68.5154 88.753L71.8071 85.4614ZM64.9799 92.2885L61.6883 95.5801L64.9799 98.8718L68.2715 95.5801L64.9799 92.2885ZM58.1528 99.1157L54.8611 102.407L58.1528 105.699L61.4444 102.407L58.1528 99.1157ZM51.3256 105.943L48.034 109.234L51.3256 112.526L54.6172 109.234L51.3256 105.943ZM78.6342 105.943L81.9258 109.234L78.6342 112.526L75.3426 109.234L78.6342 105.943ZM71.8071 99.1157L75.0987 102.407L71.8071 105.699L68.5154 102.407L71.8071 99.1157ZM64.9799 105.943L61.6883 109.234L64.9799 112.526L68.2715 109.234L64.9799 105.943ZM58.1528 112.77L54.8611 116.062L58.1528 119.353L61.4444 116.062L58.1528 112.77ZM71.8071 112.77L75.0987 116.062L71.8071 119.353L68.5154 116.062L71.8071 112.77ZM64.9799 119.597L61.6883 122.889L64.9799 126.18L68.2715 122.889L64.9799 119.597Z" fill="#E5E5E5"/>
</mask>
<g mask="url(#mask0_705_65)">
<circle cx="64.9799" cy="95.5013" r="58.2316" fill="#E5E5E5"/>
</g>
</g>
</svg>
