<svg width="810" height="891" viewBox="0 0 810 891" fill="none" xmlns="http://www.w3.org/2000/svg">
<mask id="mask0_1027_3" style="mask-type:alpha" maskUnits="userSpaceOnUse" x="0" y="745" width="161" height="242">
<path fill-rule="evenodd" clip-rule="evenodd" d="M117.571 872.5L122.536 867.536L156.536 901.536L160.071 898L126.071 864L156.536 833.536L153 830L122.536 860.464L117.571 855.5L156.536 816.536L153 813L114.036 851.964L109.071 847L156.536 799.536L153 796L105.536 843.464L100.571 838.5L156.536 782.536L153 779L97.0355 834.964L92.0711 830L156.536 765.536L153 762L88.5355 826.464L83.5711 821.5L156.536 748.536L153 745L80.0355 817.964L7.07106 745L3.53553 748.536L76.5 821.5L71.5355 826.464L7.07106 762L3.53553 765.536L68 830L63.0355 834.964L7.07106 779L3.53553 782.536L59.5 838.5L54.5355 843.464L7.07106 796L3.53553 799.536L51 847L46.0355 851.964L7.07106 813L3.53553 816.536L42.5 855.5L37.5355 860.464L7.07106 830L3.53553 833.536L34 864L0 898L3.53553 901.536L37.5355 867.536L42.5 872.5L0 915L3.53553 918.536L46.0355 876.036L51 881L0 932L3.53553 935.536L54.5355 884.536L59.5 889.5L0 949L3.53553 952.536L63.0355 893.036L68 898L0 966L3.53553 969.536L71.5355 901.536L76.5 906.5L0 983L3.53553 986.536L80.0355 910.036L156.536 986.536L160.071 983L83.5711 906.5L88.5355 901.536L156.536 969.536L160.071 966L92.0711 898L97.0355 893.036L156.536 952.536L160.071 949L100.571 889.5L105.536 884.536L156.536 935.536L160.071 932L109.071 881L114.036 876.036L156.536 918.536L160.071 915L117.571 872.5ZM41.0711 864L46.0355 868.964L51 864L46.0355 859.036L41.0711 864ZM49.5711 855.5L54.5355 860.464L59.5 855.5L54.5355 850.536L49.5711 855.5ZM58.0711 847L63.0355 851.964L68 847L63.0355 842.036L58.0711 847ZM66.5711 838.5L71.5355 843.464L76.5 838.5L71.5355 833.536L66.5711 838.5ZM75.0711 830L80.0355 834.964L85 830L80.0355 825.036L75.0711 830ZM114.036 868.964L119 864L114.036 859.036L109.071 864L114.036 868.964ZM105.536 850.536L110.5 855.5L105.536 860.464L100.571 855.5L105.536 850.536ZM97.0355 842.036L102 847L97.0355 851.964L92.0711 847L97.0355 842.036ZM88.5355 833.536L93.5 838.5L88.5355 843.464L83.5711 838.5L88.5355 833.536ZM80.0355 842.036L75.0711 847L80.0355 851.964L85 847L80.0355 842.036ZM71.5355 850.536L66.5711 855.5L71.5355 860.464L76.5 855.5L71.5355 850.536ZM63.0355 859.036L58.0711 864L63.0355 868.964L68 864L63.0355 859.036ZM54.5355 867.536L49.5711 872.5L54.5355 877.464L59.5 872.5L54.5355 867.536ZM105.536 867.536L110.5 872.5L105.536 877.464L100.571 872.5L105.536 867.536ZM97.0355 859.036L102 864L97.0355 868.964L92.0711 864L97.0355 859.036ZM88.5355 850.536L93.5 855.5L88.5355 860.464L83.5711 855.5L88.5355 850.536ZM58.0711 881L63.0355 885.964L68 881L63.0355 876.036L58.0711 881ZM66.5711 872.5L71.5355 877.464L76.5 872.5L71.5355 867.536L66.5711 872.5ZM75.0711 864L80.0355 868.964L85 864L80.0355 859.036L75.0711 864ZM97.0355 885.964L102 881L97.0355 876.036L92.0711 881L97.0355 885.964ZM88.5355 867.536L93.5 872.5L88.5355 877.464L83.5711 872.5L88.5355 867.536ZM80.0355 876.036L75.0711 881L80.0355 885.964L85 881L80.0355 876.036ZM71.5355 884.536L66.5711 889.5L71.5355 894.464L76.5 889.5L71.5355 884.536ZM88.5355 884.536L93.5 889.5L88.5355 894.464L83.5711 889.5L88.5355 884.536ZM80.0355 893.036L75.0711 898L80.0355 902.964L85 898L80.0355 893.036Z" fill="#E5E5E5"/>
</mask>
<g mask="url(#mask0_1027_3)">
<circle cx="80.0355" cy="863.036" r="72.5" fill="#E5E5E5"/>
</g>
<mask id="mask1_1027_3" style="mask-type:alpha" maskUnits="userSpaceOnUse" x="730" y="0" width="161" height="242">
<path fill-rule="evenodd" clip-rule="evenodd" d="M847.571 127.5L852.536 122.536L886.536 156.536L890.071 153L856.071 119L886.536 88.5355L883 85L852.536 115.464L847.571 110.5L886.536 71.5355L883 68L844.036 106.964L839.071 102L886.536 54.5355L883 51L835.536 98.4645L830.571 93.5L886.536 37.5355L883 34L827.036 89.9645L822.071 85L886.536 20.5355L883 17L818.536 81.4645L813.571 76.5L886.536 3.53553L883 0L810.036 72.9645L737.071 0L733.536 3.53553L806.5 76.5L801.536 81.4645L737.071 17L733.536 20.5355L798 85L793.036 89.9645L737.071 34L733.536 37.5355L789.5 93.5L784.536 98.4645L737.071 51L733.536 54.5355L781 102L776.036 106.964L737.071 68L733.536 71.5355L772.5 110.5L767.536 115.464L737.071 85L733.536 88.5355L764 119L730 153L733.536 156.536L767.536 122.536L772.5 127.5L730 170L733.536 173.536L776.036 131.036L781 136L730 187L733.536 190.536L784.536 139.536L789.5 144.5L730 204L733.536 207.536L793.036 148.036L798 153L730 221L733.536 224.536L801.536 156.536L806.5 161.5L730 238L733.536 241.536L810.036 165.036L886.536 241.536L890.071 238L813.571 161.5L818.536 156.536L886.536 224.536L890.071 221L822.071 153L827.036 148.036L886.536 207.536L890.071 204L830.571 144.5L835.536 139.536L886.536 190.536L890.071 187L839.071 136L844.036 131.036L886.536 173.536L890.071 170L847.571 127.5ZM771.071 119L776.036 123.964L781 119L776.036 114.036L771.071 119ZM779.571 110.5L784.536 115.464L789.5 110.5L784.536 105.536L779.571 110.5ZM788.071 102L793.036 106.964L798 102L793.036 97.0355L788.071 102ZM796.571 93.5L801.536 98.4645L806.5 93.5L801.536 88.5355L796.571 93.5ZM805.071 85L810.036 89.9645L815 85L810.036 80.0355L805.071 85ZM844.036 123.964L849 119L844.036 114.036L839.071 119L844.036 123.964ZM835.536 105.536L840.5 110.5L835.536 115.464L830.571 110.5L835.536 105.536ZM827.036 97.0355L832 102L827.036 106.964L822.071 102L827.036 97.0355ZM818.536 88.5355L823.5 93.5L818.536 98.4645L813.571 93.5L818.536 88.5355ZM810.036 97.0355L805.071 102L810.036 106.964L815 102L810.036 97.0355ZM801.536 105.536L796.571 110.5L801.536 115.464L806.5 110.5L801.536 105.536ZM793.036 114.036L788.071 119L793.036 123.964L798 119L793.036 114.036ZM784.536 122.536L779.571 127.5L784.536 132.464L789.5 127.5L784.536 122.536ZM835.536 122.536L840.5 127.5L835.536 132.464L830.571 127.5L835.536 122.536ZM827.036 114.036L832 119L827.036 123.964L822.071 119L827.036 114.036ZM818.536 105.536L823.5 110.5L818.536 115.464L813.571 110.5L818.536 105.536ZM788.071 136L793.036 140.964L798 136L793.036 131.036L788.071 136ZM796.571 127.5L801.536 132.464L806.5 127.5L801.536 122.536L796.571 127.5ZM805.071 119L810.036 123.964L815 119L810.036 114.036L805.071 119ZM827.036 140.964L832 136L827.036 131.036L822.071 136L827.036 140.964ZM818.536 122.536L823.5 127.5L818.536 132.464L813.571 127.5L818.536 122.536ZM810.036 131.036L805.071 136L810.036 140.964L815 136L810.036 131.036ZM801.536 139.536L796.571 144.5L801.536 149.464L806.5 144.5L801.536 139.536ZM818.536 139.536L823.5 144.5L818.536 149.464L813.571 144.5L818.536 139.536ZM810.036 148.036L805.071 153L810.036 157.964L815 153L810.036 148.036Z" fill="#E5E5E5"/>
</mask>
<g mask="url(#mask1_1027_3)">
<circle cx="810.036" cy="118.036" r="72.5" fill="#E5E5E5"/>
</g>
<mask id="mask2_1027_3" style="mask-type:alpha" maskUnits="userSpaceOnUse" x="391" y="410" width="130" height="195">
<path fill-rule="evenodd" clip-rule="evenodd" d="M517.424 536.424L490.116 509.116L486.824 512.407L520.96 546.543L517.424 550.079L483.289 515.943L479.997 519.234L520.96 560.197L517.424 563.733L476.461 522.77L473.17 526.062L520.96 573.852L517.424 577.387L469.634 529.597L466.343 532.889L520.96 587.506L517.424 591.042L462.807 536.424L459.515 539.716L520.96 601.16L517.424 604.696L455.98 543.251L394.536 604.696L391 601.16L452.444 539.716L449.153 536.424L394.536 591.042L391 587.506L445.617 532.889L442.326 529.597L394.536 577.387L391 573.852L438.79 526.062L435.498 522.77L394.536 563.733L391 560.197L431.963 519.234L428.671 515.943L394.536 550.079L391 546.543L425.136 512.407L421.844 509.116L394.536 536.424L391 532.889L418.309 505.58L394.536 481.807L398.071 478.272L421.844 502.045L425.136 498.753L394.536 468.153L398.071 464.617L428.671 495.217L431.963 491.926L394.536 454.498L398.071 450.963L435.498 488.39L438.79 485.099L394.536 440.844L398.071 437.309L442.326 481.563L445.617 478.272L394.536 427.19L398.071 423.654L449.153 474.736L452.444 471.444L394.536 413.536L398.071 410L455.98 467.909L513.889 410L517.424 413.536L459.515 471.444L462.807 474.736L513.889 423.654L517.424 427.19L466.343 478.272L469.634 481.563L513.889 437.309L517.424 440.844L473.17 485.099L476.461 488.39L513.889 450.963L517.424 454.498L479.997 491.926L483.289 495.217L513.889 464.617L517.424 468.153L486.824 498.753L490.116 502.045L513.889 478.272L517.424 481.807L493.651 505.58L520.96 532.889L517.424 536.424ZM455.98 474.98L452.688 478.272L455.98 481.563L459.272 478.272L455.98 474.98ZM449.153 481.807L445.861 485.099L449.153 488.39L452.444 485.099L449.153 481.807ZM442.326 488.634L439.034 491.926L442.326 495.217L445.617 491.926L442.326 488.634ZM435.498 495.461L432.207 498.753L435.498 502.045L438.79 498.753L435.498 495.461ZM428.671 502.289L425.38 505.58L428.671 508.872L431.963 505.58L428.671 502.289ZM483.289 502.289L486.58 505.58L483.289 508.872L479.997 505.58L483.289 502.289ZM476.461 495.461L479.753 498.753L476.461 502.045L473.17 498.753L476.461 495.461ZM469.634 488.634L472.926 491.926L469.634 495.217L466.343 491.926L469.634 488.634ZM462.807 481.807L466.099 485.099L462.807 488.39L459.515 485.099L462.807 481.807ZM455.98 488.634L452.688 491.926L455.98 495.217L459.272 491.926L455.98 488.634ZM449.153 495.461L445.861 498.753L449.153 502.045L452.444 498.753L449.153 495.461ZM442.326 502.289L439.034 505.58L442.326 508.872L445.617 505.58L442.326 502.289ZM435.498 509.116L432.207 512.407L435.498 515.699L438.79 512.407L435.498 509.116ZM476.461 509.116L479.753 512.407L476.461 515.699L473.17 512.407L476.461 509.116ZM469.634 502.289L472.926 505.58L469.634 508.872L466.343 505.58L469.634 502.289ZM462.807 495.461L466.099 498.753L462.807 502.045L459.515 498.753L462.807 495.461ZM455.98 502.289L452.688 505.58L455.98 508.872L459.272 505.58L455.98 502.289ZM449.153 509.116L445.861 512.407L449.153 515.699L452.444 512.407L449.153 509.116ZM442.326 515.943L439.034 519.234L442.326 522.526L445.617 519.234L442.326 515.943ZM469.634 515.943L472.926 519.234L469.634 522.526L466.343 519.234L469.634 515.943ZM462.807 509.116L466.099 512.407L462.807 515.699L459.515 512.407L462.807 509.116ZM455.98 515.943L452.688 519.234L455.98 522.526L459.272 519.234L455.98 515.943ZM449.153 522.77L445.861 526.062L449.153 529.353L452.444 526.062L449.153 522.77ZM462.807 522.77L466.099 526.062L462.807 529.353L459.515 526.062L462.807 522.77ZM455.98 529.597L452.688 532.889L455.98 536.18L459.272 532.889L455.98 529.597Z" fill="#E5E5E5"/>
</mask>
<g mask="url(#mask2_1027_3)">
<circle cx="455.98" cy="505.501" r="58.2316" fill="#E5E5E5"/>
</g>
</svg>
