<svg width="90" height="23" viewBox="0 0 90 23" fill="none" xmlns="http://www.w3.org/2000/svg">
<path d="M0.76 22C0.56 22 0.46 21.9 0.46 21.7V1.3C0.46 1.1 0.56 0.999999 0.76 0.999999H3.04C3.24 0.999999 3.34 1.1 3.34 1.3V10.87C3.34 10.91 3.36 10.94 3.4 10.96C3.44 10.96 3.47 10.94 3.49 10.9L12.07 1.18C12.15 1.06 12.27 0.999999 12.43 0.999999H15.04C15.16 0.999999 15.24 1.04 15.28 1.12C15.32 1.18 15.3 1.26 15.22 1.36L8.08 9.79C8.06 9.85 8.06 9.91 8.08 9.97L15.73 21.64C15.77 21.72 15.79 21.78 15.79 21.82C15.79 21.94 15.71 22 15.55 22H12.94C12.8 22 12.68 21.94 12.58 21.82L6.1 12.01C6.08 11.97 6.05 11.95 6.01 11.95C5.97 11.95 5.94 11.96 5.92 11.98L3.4 14.8C3.36 14.88 3.34 14.93 3.34 14.95V21.7C3.34 21.9 3.24 22 3.04 22H0.76ZM24.1663 6.49C25.3863 6.49 26.4463 6.71 27.3463 7.15C28.2663 7.57 28.9663 8.17 29.4463 8.95C29.9463 9.71 30.1963 10.58 30.1963 11.56V21.7C30.1963 21.9 30.0963 22 29.8963 22H27.6163C27.4163 22 27.3163 21.9 27.3163 21.7V20.62C27.3163 20.52 27.2663 20.5 27.1663 20.56C26.6463 21.1 26.0063 21.52 25.2463 21.82C24.5063 22.1 23.6763 22.24 22.7563 22.24C21.2763 22.24 20.0463 21.87 19.0663 21.13C18.1063 20.37 17.6263 19.23 17.6263 17.71C17.6263 16.15 18.1663 14.93 19.2463 14.05C20.3463 13.15 21.8763 12.7 23.8363 12.7H27.1963C27.2763 12.7 27.3163 12.66 27.3163 12.58V11.77C27.3163 10.89 27.0563 10.21 26.5363 9.73C26.0363 9.23 25.2663 8.98 24.2263 8.98C23.3863 8.98 22.6963 9.15 22.1563 9.49C21.6363 9.81 21.3163 10.25 21.1963 10.81C21.1363 11.01 21.0163 11.1 20.8363 11.08L18.4063 10.75C18.2063 10.71 18.1163 10.63 18.1363 10.51C18.2963 9.33 18.9263 8.37 20.0263 7.63C21.1263 6.87 22.5063 6.49 24.1663 6.49ZM23.3863 19.81C24.4463 19.81 25.3663 19.53 26.1463 18.97C26.9263 18.41 27.3163 17.7 27.3163 16.84V15.07C27.3163 14.99 27.2763 14.95 27.1963 14.95H24.3763C23.1963 14.95 22.2563 15.18 21.5563 15.64C20.8563 16.1 20.5063 16.74 20.5063 17.56C20.5063 18.3 20.7663 18.86 21.2863 19.24C21.8263 19.62 22.5263 19.81 23.3863 19.81ZM39.4544 22.18C38.2544 22.18 37.1944 22 36.2744 21.64C35.3744 21.28 34.6744 20.79 34.1744 20.17C33.6744 19.53 33.4244 18.83 33.4244 18.07V17.74C33.4244 17.54 33.5244 17.44 33.7244 17.44H35.8844C36.0844 17.44 36.1844 17.54 36.1844 17.74V17.89C36.1844 18.45 36.4844 18.94 37.0844 19.36C37.7044 19.78 38.4844 19.99 39.4244 19.99C40.3244 19.99 41.0544 19.8 41.6144 19.42C42.1744 19.02 42.4544 18.52 42.4544 17.92C42.4544 17.34 42.1944 16.91 41.6744 16.63C41.1544 16.33 40.3144 16.02 39.1544 15.7C38.0144 15.38 37.0544 15.06 36.2744 14.74C35.5144 14.4 34.8644 13.93 34.3244 13.33C33.8044 12.71 33.5444 11.92 33.5444 10.96C33.5444 9.62 34.0644 8.56 35.1044 7.78C36.1644 6.98 37.5644 6.58 39.3044 6.58C40.4644 6.58 41.4844 6.77 42.3644 7.15C43.2644 7.51 43.9544 8.02 44.4344 8.68C44.9144 9.34 45.1544 10.08 45.1544 10.9V10.99C45.1544 11.19 45.0544 11.29 44.8544 11.29H42.7544C42.5544 11.29 42.4544 11.19 42.4544 10.99V10.9C42.4544 10.32 42.1644 9.84 41.5844 9.46C41.0244 9.06 40.2544 8.86 39.2744 8.86C38.3944 8.86 37.6744 9.03 37.1144 9.37C36.5744 9.71 36.3044 10.17 36.3044 10.75C36.3044 11.33 36.5644 11.77 37.0844 12.07C37.6244 12.37 38.4844 12.69 39.6644 13.03C40.8244 13.35 41.7844 13.67 42.5444 13.99C43.3244 14.29 43.9844 14.75 44.5244 15.37C45.0644 15.97 45.3344 16.76 45.3344 17.74C45.3344 19.1 44.7944 20.18 43.7144 20.98C42.6544 21.78 41.2344 22.18 39.4544 22.18ZM64.5735 6.52C66.0935 6.52 67.2935 6.98 68.1735 7.9C69.0535 8.8 69.4935 10.06 69.4935 11.68V21.7C69.4935 21.9 69.3935 22 69.1935 22H66.9435C66.7435 22 66.6435 21.9 66.6435 21.7V12.28C66.6435 11.28 66.3635 10.49 65.8035 9.91C65.2635 9.31 64.5335 9.01 63.6135 9.01C62.6935 9.01 61.9435 9.3 61.3635 9.88C60.7835 10.46 60.4935 11.24 60.4935 12.22V21.7C60.4935 21.9 60.3935 22 60.1935 22H57.9435C57.7435 22 57.6435 21.9 57.6435 21.7V12.28C57.6435 11.28 57.3635 10.49 56.8035 9.91C56.2635 9.31 55.5335 9.01 54.6135 9.01C53.6935 9.01 52.9535 9.3 52.3935 9.88C51.8535 10.46 51.5835 11.24 51.5835 12.22V21.7C51.5835 21.9 51.4835 22 51.2835 22H49.0035C48.8035 22 48.7035 21.9 48.7035 21.7V7.03C48.7035 6.83 48.8035 6.73 49.0035 6.73H51.2835C51.4835 6.73 51.5835 6.83 51.5835 7.03V8.05C51.5835 8.09 51.5935 8.12 51.6135 8.14C51.6535 8.16 51.6935 8.15 51.7335 8.11C52.6135 7.05 53.8935 6.52 55.5735 6.52C56.5935 6.52 57.4635 6.72 58.1835 7.12C58.9035 7.5 59.4635 8.07 59.8635 8.83C59.9235 8.91 59.9835 8.91 60.0435 8.83C60.5235 8.05 61.1535 7.47 61.9335 7.09C62.7335 6.71 63.6135 6.52 64.5735 6.52ZM75.2287 4.33C74.6687 4.33 74.2087 4.15 73.8487 3.79C73.4887 3.43 73.3087 2.97 73.3087 2.41C73.3087 1.85 73.4887 1.39 73.8487 1.03C74.2087 0.669999 74.6687 0.49 75.2287 0.49C75.7887 0.49 76.2487 0.669999 76.6087 1.03C76.9687 1.39 77.1487 1.85 77.1487 2.41C77.1487 2.97 76.9687 3.43 76.6087 3.79C76.2487 4.15 75.7887 4.33 75.2287 4.33ZM74.0287 21.97C73.8287 21.97 73.7287 21.87 73.7287 21.67V7.03C73.7287 6.83 73.8287 6.73 74.0287 6.73H76.3087C76.5087 6.73 76.6087 6.83 76.6087 7.03V21.67C76.6087 21.87 76.5087 21.97 76.3087 21.97H74.0287ZM87.8252 6.58C88.4652 6.58 89.0452 6.71 89.5652 6.97C89.7052 7.03 89.7552 7.15 89.7152 7.33L89.2352 9.58C89.2152 9.76 89.0952 9.82 88.8752 9.76C88.5352 9.62 88.1352 9.55 87.6752 9.55L87.2552 9.58C86.3152 9.62 85.5352 9.95 84.9152 10.57C84.3152 11.17 84.0152 11.96 84.0152 12.94V21.7C84.0152 21.9 83.9152 22 83.7152 22H81.4352C81.2352 22 81.1352 21.9 81.1352 21.7V7.03C81.1352 6.83 81.2352 6.73 81.4352 6.73H83.7152C83.9152 6.73 84.0152 6.83 84.0152 7.03V8.62C84.0152 8.68 84.0252 8.72 84.0452 8.74C84.0852 8.74 84.1152 8.72 84.1352 8.68C85.0352 7.28 86.2652 6.58 87.8252 6.58Z" fill="#050215"/>
</svg>
