<svg width="810" height="891" fill="none" xmlns="http://www.w3.org/2000/svg"><mask id="a" style="mask-type:alpha" maskUnits="userSpaceOnUse" x="0" y="745" width="161" height="242"><path fill-rule="evenodd" clip-rule="evenodd" d="m117.571 872.5 4.965-4.964 34 34 3.535-3.536-34-34 30.465-30.464L153 830l-30.464 30.464-4.965-4.964 38.965-38.964L153 813l-38.964 38.964-4.965-4.964 47.465-47.464L153 796l-47.464 47.464-4.965-4.964 55.965-55.964L153 779l-55.965 55.964L92.072 830l64.465-64.464L153 762l-64.465 64.464-4.964-4.964 72.965-72.964L153 745l-72.965 72.964L7.072 745l-3.535 3.536L76.5 821.5l-4.965 4.964L7.072 762l-3.535 3.536L68 830l-4.965 4.964L7.072 779l-3.535 3.536L59.5 838.5l-4.965 4.964L7.072 796l-3.535 3.536L51 847l-4.965 4.964L7.072 813l-3.535 3.536L42.5 855.5l-4.965 4.964L7.072 830l-3.535 3.536L34 864 0 898l3.536 3.536 34-34L42.5 872.5 0 915l3.536 3.536 42.5-42.5L51 881 0 932l3.536 3.536 51-51L59.5 889.5 0 949l3.536 3.536 59.5-59.5L68 898 0 966l3.536 3.536 68-68L76.5 906.5 0 983l3.536 3.536 76.5-76.5 76.5 76.5 3.535-3.536-76.5-76.5 4.965-4.964 68 68 3.535-3.536-68-68 4.965-4.964 59.5 59.5 3.535-3.536-59.5-59.5 4.965-4.964 51 51 3.535-3.536-51-51 4.965-4.964 42.5 42.5 3.535-3.536-42.5-42.5Zm-76.5-8.5 4.965 4.964L51 864l-4.965-4.964L41.072 864Zm8.5-8.5 4.965 4.964L59.5 855.5l-4.965-4.964-4.964 4.964Zm8.5-8.5 4.965 4.964L68 847l-4.965-4.964L58.072 847Zm8.5-8.5 4.965 4.964L76.5 838.5l-4.965-4.964-4.964 4.964Zm8.5-8.5 4.965 4.964L85 830l-4.965-4.964L75.072 830Zm38.965 38.964L119 864l-4.964-4.964-4.965 4.964 4.965 4.964Zm-8.5-18.428 4.964 4.964-4.964 4.964-4.965-4.964 4.965-4.964Zm-8.5-8.5L102 847l-4.965 4.964L92.072 847l4.965-4.964Zm-8.5-8.5L93.5 838.5l-4.965 4.964-4.964-4.964 4.965-4.964Zm-8.5 8.5L75.07 847l4.965 4.964L85 847l-4.965-4.964Zm-8.5 8.5L66.57 855.5l4.965 4.964L76.5 855.5l-4.965-4.964Zm-8.5 8.5L58.07 864l4.965 4.964L68 864l-4.965-4.964Zm-8.5 8.5L49.57 872.5l4.965 4.964L59.5 872.5l-4.965-4.964Zm51 0 4.964 4.964-4.964 4.964-4.965-4.964 4.965-4.964Zm-8.5-8.5L102 864l-4.965 4.964L92.072 864l4.965-4.964Zm-8.5-8.5L93.5 855.5l-4.965 4.964-4.964-4.964 4.965-4.964ZM58.07 881l4.965 4.964L68 881l-4.965-4.964L58.072 881Zm8.5-8.5 4.965 4.964L76.5 872.5l-4.965-4.964-4.964 4.964Zm8.5-8.5 4.965 4.964L85 864l-4.965-4.964L75.072 864Zm21.965 21.964L102 881l-4.965-4.964L92.072 881l4.965 4.964Zm-8.5-18.428L93.5 872.5l-4.965 4.964-4.964-4.964 4.965-4.964Zm-8.5 8.5L75.07 881l4.965 4.964L85 881l-4.965-4.964Zm-8.5 8.5L66.57 889.5l4.965 4.964L76.5 889.5l-4.965-4.964Zm17 0L93.5 889.5l-4.965 4.964-4.964-4.964 4.965-4.964Zm-8.5 8.5L75.07 898l4.965 4.964L85 898l-4.965-4.964Z" fill="#E5E5E5"/></mask><g mask="url(#a)"><circle cx="80.035" cy="863.036" r="72.5" fill="#E5E5E5"/></g><mask id="b" style="mask-type:alpha" maskUnits="userSpaceOnUse" x="730" y="0" width="161" height="242"><path fill-rule="evenodd" clip-rule="evenodd" d="m847.571 127.5 4.965-4.964 34 34 3.535-3.536-34-34 30.465-30.465L883 85l-30.464 30.464-4.965-4.964 38.965-38.965L883 68l-38.964 38.964-4.965-4.964 47.465-47.465L883 51l-47.464 47.465-4.965-4.965 55.965-55.965L883 34l-55.964 55.965L822.071 85l64.465-64.465L883 17l-64.464 64.465-4.965-4.965 72.965-72.964L883 0l-72.964 72.965L737.071 0l-3.535 3.536L806.5 76.5l-4.964 4.965L737.071 17l-3.535 3.535L798 85l-4.964 4.965L737.071 34l-3.535 3.535L789.5 93.5l-4.964 4.965L737.071 51l-3.535 3.535L781 102l-4.964 4.964L737.071 68l-3.535 3.535L772.5 110.5l-4.964 4.964L737.071 85l-3.535 3.535L764 119l-34 34 3.536 3.536 34-34 4.964 4.964L730 170l3.536 3.536 42.5-42.5L781 136l-51 51 3.536 3.536 51-51 4.964 4.964L730 204l3.536 3.536 59.5-59.5L798 153l-68 68 3.536 3.536 68-68 4.964 4.964L730 238l3.536 3.536 76.5-76.5 76.5 76.5 3.535-3.536-76.5-76.5 4.965-4.964 68 68 3.535-3.536-68-68 4.965-4.964 59.5 59.5 3.535-3.536-59.5-59.5 4.965-4.964 51 51 3.535-3.536-51-51 4.965-4.964 42.5 42.5 3.535-3.536-42.5-42.5Zm-76.5-8.5 4.965 4.964L781 119l-4.964-4.964-4.965 4.964Zm8.5-8.5 4.965 4.964 4.964-4.964-4.964-4.964-4.965 4.964Zm8.5-8.5 4.965 4.964L798 102l-4.964-4.965-4.965 4.965Zm8.5-8.5 4.965 4.965L806.5 93.5l-4.964-4.965-4.965 4.965Zm8.5-8.5 4.965 4.965L815 85l-4.964-4.965L805.071 85Zm38.965 38.964L849 119l-4.964-4.964-4.965 4.964 4.965 4.964Zm-8.5-18.428 4.964 4.964-4.964 4.964-4.965-4.964 4.965-4.964Zm-8.5-8.5L832 102l-4.964 4.964-4.965-4.964 4.965-4.965Zm-8.5-8.5L823.5 93.5l-4.964 4.965-4.965-4.965 4.965-4.965Zm-8.5 8.5L805.071 102l4.965 4.964L815 102l-4.964-4.965Zm-8.5 8.5-4.965 4.964 4.965 4.964 4.964-4.964-4.964-4.964Zm-8.5 8.5L788.071 119l4.965 4.964L798 119l-4.964-4.964Zm-8.5 8.5-4.965 4.964 4.965 4.964 4.964-4.964-4.964-4.964Zm51 0 4.964 4.964-4.964 4.964-4.965-4.964 4.965-4.964Zm-8.5-8.5L832 119l-4.964 4.964-4.965-4.964 4.965-4.964Zm-8.5-8.5 4.964 4.964-4.964 4.964-4.965-4.964 4.965-4.964ZM788.071 136l4.965 4.964L798 136l-4.964-4.964-4.965 4.964Zm8.5-8.5 4.965 4.964 4.964-4.964-4.964-4.964-4.965 4.964Zm8.5-8.5 4.965 4.964L815 119l-4.964-4.964-4.965 4.964Zm21.965 21.964L832 136l-4.964-4.964-4.965 4.964 4.965 4.964Zm-8.5-18.428 4.964 4.964-4.964 4.964-4.965-4.964 4.965-4.964Zm-8.5 8.5L805.071 136l4.965 4.964L815 136l-4.964-4.964Zm-8.5 8.5-4.965 4.964 4.965 4.964 4.964-4.964-4.964-4.964Zm17 0 4.964 4.964-4.964 4.964-4.965-4.964 4.965-4.964Zm-8.5 8.5L805.071 153l4.965 4.964L815 153l-4.964-4.964Z" fill="#E5E5E5"/></mask><g mask="url(#b)"><circle cx="810.036" cy="118.036" r="72.5" fill="#E5E5E5"/></g><mask id="c" style="mask-type:alpha" maskUnits="userSpaceOnUse" x="391" y="410" width="130" height="195"><path fill-rule="evenodd" clip-rule="evenodd" d="m517.424 536.424-27.308-27.308-3.292 3.291 34.136 34.136-3.536 3.536-34.135-34.136-3.292 3.291 40.963 40.963-3.536 3.536-40.963-40.963-3.291 3.292 47.79 47.79-3.536 3.535-47.79-47.79-3.291 3.292 54.617 54.617-3.536 3.536-54.617-54.618-3.292 3.292 61.445 61.444-3.536 3.536-61.444-61.445-61.444 61.445L391 601.16l61.444-61.444-3.291-3.292-54.617 54.618-3.536-3.536 54.617-54.617-3.291-3.292-47.79 47.79-3.536-3.535 47.79-47.79-3.292-3.292-40.962 40.963-3.536-3.536 40.963-40.963-3.292-3.291-34.135 34.136-3.536-3.536 34.136-34.136-3.292-3.291-27.308 27.308-3.536-3.535 27.309-27.309-23.773-23.773 3.535-3.535 23.773 23.773 3.292-3.292-30.6-30.6 3.535-3.536 30.6 30.6 3.292-3.291-37.427-37.428 3.535-3.535 37.427 37.427 3.292-3.291-44.254-44.255 3.535-3.535 44.255 44.254 3.291-3.291-51.081-51.082 3.535-3.536 51.082 51.082 3.291-3.292-57.908-57.908 3.535-3.536 57.909 57.909L513.889 410l3.535 3.536-57.909 57.908 3.292 3.292 51.082-51.082 3.535 3.536-51.081 51.082 3.291 3.291 44.255-44.254 3.535 3.535-44.254 44.255 3.291 3.291 37.428-37.427 3.535 3.535-37.427 37.428 3.292 3.291 30.6-30.6 3.535 3.536-30.6 30.6 3.292 3.292 23.773-23.773 3.535 3.535-23.773 23.773 27.309 27.309-3.536 3.535ZM455.98 474.98l-3.292 3.292 3.292 3.291 3.292-3.291-3.292-3.292Zm-6.827 6.827-3.292 3.292 3.292 3.291 3.291-3.291-3.291-3.292Zm-6.827 6.827-3.292 3.292 3.292 3.291 3.291-3.291-3.291-3.292Zm-6.828 6.827-3.291 3.292 3.291 3.292 3.292-3.292-3.292-3.292Zm-6.827 6.828-3.291 3.291 3.291 3.292 3.292-3.292-3.292-3.291Zm54.618 0 3.291 3.291-3.291 3.292-3.292-3.292 3.292-3.291Zm-6.828-6.828 3.292 3.292-3.292 3.292-3.291-3.292 3.291-3.292Zm-6.827-6.827 3.292 3.292-3.292 3.291-3.291-3.291 3.291-3.292Zm-6.827-6.827 3.292 3.292-3.292 3.291-3.292-3.291 3.292-3.292Zm-6.827 6.827-3.292 3.292 3.292 3.291 3.292-3.291-3.292-3.292Zm-6.827 6.827-3.292 3.292 3.292 3.292 3.291-3.292-3.291-3.292Zm-6.827 6.828-3.292 3.291 3.292 3.292 3.291-3.292-3.291-3.291Zm-6.828 6.827-3.291 3.291 3.291 3.292 3.292-3.292-3.292-3.291Zm40.963 0 3.292 3.291-3.292 3.292-3.291-3.292 3.291-3.291Zm-6.827-6.827 3.292 3.291-3.292 3.292-3.291-3.292 3.291-3.291Zm-6.827-6.828 3.292 3.292-3.292 3.292-3.292-3.292 3.292-3.292Zm-6.827 6.828-3.292 3.291 3.292 3.292 3.292-3.292-3.292-3.291Zm-6.827 6.827-3.292 3.291 3.292 3.292 3.291-3.292-3.291-3.291Zm-6.827 6.827-3.292 3.291 3.292 3.292 3.291-3.292-3.291-3.291Zm27.308 0 3.292 3.291-3.292 3.292-3.291-3.292 3.291-3.291Zm-6.827-6.827 3.292 3.291-3.292 3.292-3.292-3.292 3.292-3.291Zm-6.827 6.827-3.292 3.291 3.292 3.292 3.292-3.292-3.292-3.291Zm-6.827 6.827-3.292 3.292 3.292 3.291 3.291-3.291-3.291-3.292Zm13.654 0 3.292 3.292-3.292 3.291-3.292-3.291 3.292-3.292Zm-6.827 6.827-3.292 3.292 3.292 3.291 3.292-3.291-3.292-3.292Z" fill="#E5E5E5"/></mask><g mask="url(#c)"><circle cx="455.98" cy="505.501" r="58.232" fill="#E5E5E5"/></g></svg>