<svg width="90" height="23" fill="none" xmlns="http://www.w3.org/2000/svg"><path d="M.76 22c-.2 0-.3-.1-.3-.3V1.3c0-.2.1-.3.3-.3h2.28c.2 0 .3.1.3.3v9.57c0 .04.02.07.06.09.04 0 .07-.02.09-.06l8.58-9.72c.08-.12.2-.18.36-.18h2.61c.12 0 .2.04.24.12.04.06.02.14-.06.24L8.08 9.79c-.02.06-.02.12 0 .18l7.65 11.67c.04.08.06.14.06.18 0 .12-.08.18-.24.18h-2.61c-.14 0-.26-.06-.36-.18L6.1 12.01c-.02-.04-.05-.06-.09-.06-.04 0-.07.01-.09.03L3.4 14.8c-.04.08-.06.13-.06.15v6.75c0 .2-.1.3-.3.3H.76ZM24.166 6.49c1.22 0 2.28.22 3.18.66.92.42 1.62 1.02 2.1 1.8.5.76.75 1.63.75 2.61V21.7c0 .2-.1.3-.3.3h-2.28c-.2 0-.3-.1-.3-.3v-1.08c0-.1-.05-.12-.15-.06-.52.54-1.16.96-1.92 1.26-.74.28-1.57.42-2.49.42-1.48 0-2.71-.37-3.69-1.11-.96-.76-1.44-1.9-1.44-3.42 0-1.56.54-2.78 1.62-3.66 1.1-.9 2.63-1.35 4.59-1.35h3.36c.08 0 .12-.04.12-.12v-.81c0-.88-.26-1.56-.78-2.04-.5-.5-1.27-.75-2.31-.75-.84 0-1.53.17-2.07.51-.52.32-.84.76-.96 1.32-.06.2-.18.29-.36.27l-2.43-.33c-.2-.04-.29-.12-.27-.24.16-1.18.79-2.14 1.89-2.88 1.1-.76 2.48-1.14 4.14-1.14Zm-.78 13.32c1.06 0 1.98-.28 2.76-.84.78-.56 1.17-1.27 1.17-2.13v-1.77c0-.08-.04-.12-.12-.12h-2.82c-1.18 0-2.12.23-2.82.69-.7.46-1.05 1.1-1.05 1.92 0 .74.26 1.3.78 1.68.54.38 1.24.57 2.1.57Zm16.068 2.37c-1.2 0-2.26-.18-3.18-.54-.9-.36-1.6-.85-2.1-1.47-.5-.64-.75-1.34-.75-2.1v-.33c0-.2.1-.3.3-.3h2.16c.2 0 .3.1.3.3v.15c0 .56.3 1.05.9 1.47.62.42 1.4.63 2.34.63.9 0 1.63-.19 2.19-.57.56-.4.84-.9.84-1.5 0-.58-.26-1.01-.78-1.29-.52-.3-1.36-.61-2.52-.93-1.14-.32-2.1-.64-2.88-.96-.76-.34-1.41-.81-1.95-1.41-.52-.62-.78-1.41-.78-2.37 0-1.34.52-2.4 1.56-3.18 1.06-.8 2.46-1.2 4.2-1.2 1.16 0 2.18.19 3.06.57.9.36 1.59.87 2.07 1.53.48.66.72 1.4.72 2.22v.09c0 .2-.1.3-.3.3h-2.1c-.2 0-.3-.1-.3-.3v-.09c0-.58-.29-1.06-.87-1.44-.56-.4-1.33-.6-2.31-.6-.88 0-1.6.17-2.16.51-.54.34-.81.8-.81 1.38 0 .58.26 1.02.78 1.32.54.3 1.4.62 2.58.96 1.16.32 2.12.64 2.88.96.78.3 1.44.76 1.98 1.38.54.6.81 1.39.81 2.37 0 1.36-.54 2.44-1.62 3.24-1.06.8-2.48 1.2-4.26 1.2Zm25.12-15.66c1.52 0 2.72.46 3.6 1.38.88.9 1.32 2.16 1.32 3.78V21.7c0 .2-.1.3-.3.3h-2.25c-.2 0-.3-.1-.3-.3v-9.42c0-1-.28-1.79-.84-2.37-.54-.6-1.27-.9-2.19-.9-.92 0-1.67.29-2.25.87-.58.58-.87 1.36-.87 2.34v9.48c0 .2-.1.3-.3.3h-2.25c-.2 0-.3-.1-.3-.3v-9.42c0-1-.28-1.79-.84-2.37-.54-.6-1.27-.9-2.19-.9-.92 0-1.66.29-2.22.87-.54.58-.81 1.36-.81 2.34v9.48c0 .2-.1.3-.3.3h-2.28c-.2 0-.3-.1-.3-.3V7.03c0-.2.1-.3.3-.3h2.28c.2 0 .3.1.3.3v1.02c0 .04.01.07.03.09.04.02.08.01.12-.03.88-1.06 2.16-1.59 3.84-1.59 1.02 0 1.89.2 2.61.6.72.38 1.28.95 1.68 1.71.06.08.12.08.18 0 .48-.78 1.11-1.36 1.89-1.74.8-.38 1.68-.57 2.64-.57Zm10.655-2.19c-.56 0-1.02-.18-1.38-.54-.36-.36-.54-.82-.54-1.38 0-.56.18-1.02.54-1.38.36-.36.82-.54 1.38-.54.56 0 1.02.18 1.38.54.36.36.54.82.54 1.38 0 .56-.18 1.02-.54 1.38-.36.36-.82.54-1.38.54Zm-1.2 17.64c-.2 0-.3-.1-.3-.3V7.03c0-.2.1-.3.3-.3h2.28c.2 0 .3.1.3.3v14.64c0 .2-.1.3-.3.3h-2.28ZM87.825 6.58c.64 0 1.22.13 1.74.39.14.06.19.18.15.36l-.48 2.25c-.02.18-.14.24-.36.18-.34-.14-.74-.21-1.2-.21l-.42.03c-.94.04-1.72.37-2.34.99-.6.6-.9 1.39-.9 2.37v8.76c0 .2-.1.3-.3.3h-2.28c-.2 0-.3-.1-.3-.3V7.03c0-.2.1-.3.3-.3h2.28c.2 0 .3.1.3.3v1.59c0 .06.01.1.03.12.04 0 .07-.02.09-.06.9-1.4 2.13-2.1 3.69-2.1Z" fill="#050215"/></svg>